<svg width="337" height="327" viewBox="0 0 337 327" fill="none" xmlns="http://www.w3.org/2000/svg">
<path d="M51.2328 0.000706285C121.979 98.0836 60.4783 90.6966 32.2784 99.0142C60.4203 135.602 44.2851 169.983 0 191.516C38.0786 206.094 88.6688 212.571 30.4825 289.493C88.201 258.363 128.186 255.739 122.691 326.241C164.61 285.798 219.188 265.416 273.594 299.602C267.387 248.496 282.776 226.116 336.609 248.161C278.889 197.681 302.74 167.707 336.941 138.345C277.834 136.11 269.545 93.0598 271.72 41.6033C236.047 78.606 208.983 74.6221 196.286 2.21943C171.767 55.3588 138.744 89.2744 51.2321 1.52588e-05L51.2328 0.000706285ZM131.29 75.6004C142.968 75.8466 149.833 84.0342 156.434 92.663L113.275 163.923C98.4627 165.296 87.6643 160.759 82.9665 147.245L126.13 75.9786C127.529 75.7533 128.865 75.6309 130.146 75.6018C130.533 75.5928 130.914 75.5922 131.29 75.6004ZM181.363 83.3421C193.041 83.5855 199.907 91.7773 206.508 100.403L157.979 182.702C143.166 184.074 132.369 179.531 127.672 166.02L176.203 83.7224C177.602 83.4963 178.938 83.3719 180.219 83.3421C180.605 83.3331 180.986 83.3331 181.362 83.3408L181.363 83.3421ZM223.942 105.502C235.62 105.749 242.486 113.935 249.088 122.561L201.258 203.833C186.445 205.202 175.647 200.667 170.952 187.155L218.779 105.88C220.179 105.655 221.515 105.533 222.797 105.504C223.183 105.495 223.566 105.495 223.943 105.502L223.942 105.502ZM257.554 143.69C269.719 143.758 276.953 151.971 283.922 160.619L243.626 227.151C229.101 228.048 218.344 223.44 213.318 210.471L253.616 143.941C254.985 143.765 256.295 143.683 257.554 143.69ZM77.1821 169.892L153.941 202.748C156.128 217.745 151.924 229.566 138.015 236.565L61.2529 203.707C57.9832 188.76 67.2534 179.172 77.1807 169.892H77.1821Z" fill="#F6B066"/>
</svg>
