<svg width="174" height="91" viewBox="0 0 174 91" fill="none" xmlns="http://www.w3.org/2000/svg">
<g id="Group 64">
<path id="Vector" d="M114.757 0.00014827C129.245 21.0453 116.651 19.4603 110.876 21.245C116.639 29.0955 113.334 36.4724 104.266 41.0927C112.064 44.2206 122.424 45.6103 110.508 62.1151C122.328 55.4357 130.516 54.8726 129.391 70C137.975 61.3222 149.152 56.9491 160.293 64.284C159.022 53.3185 162.174 48.5166 173.198 53.2467C161.377 42.4155 166.262 35.984 173.266 29.684C161.162 29.2045 159.464 19.9674 159.909 8.92661C152.604 16.8661 147.062 16.0113 144.462 0.476209C139.441 11.8781 132.678 19.1552 114.757 0L114.757 0.00014827ZM131.152 16.2212C133.543 16.274 134.949 18.0308 136.301 19.8822L127.462 35.1722C124.429 35.4667 122.218 34.4932 121.256 31.5936L130.095 16.3024C130.382 16.254 130.655 16.2277 130.917 16.2215C130.997 16.2196 131.075 16.2194 131.152 16.2212ZM141.406 17.8823C143.797 17.9345 145.203 19.6922 146.555 21.543L136.617 39.2015C133.584 39.4959 131.373 38.5211 130.411 35.6222L140.349 17.9639C140.636 17.9154 140.909 17.8887 141.171 17.8823C141.251 17.8804 141.329 17.8804 141.406 17.882L141.406 17.8823ZM150.125 22.637C152.517 22.6899 153.923 24.4466 155.275 26.2973L145.48 43.7355C142.446 44.0293 140.235 43.0561 139.274 40.1568L149.068 22.7181C149.355 22.6699 149.628 22.6436 149.891 22.6374C149.97 22.6355 150.048 22.6355 150.126 22.6371L150.125 22.637ZM157.008 30.8309C159.5 30.8454 160.981 32.6077 162.408 34.4633L154.156 48.7387C151.182 48.9311 148.979 47.9425 147.95 45.1597L156.202 30.8847C156.482 30.8469 156.751 30.8295 157.008 30.831L157.008 30.8309ZM120.071 36.453L135.79 43.5026C136.238 46.7204 135.377 49.2569 132.529 50.7585L116.809 43.7084C116.14 40.5013 118.038 38.4441 120.071 36.453H120.071Z" fill="#F6B066" style="fill:#F6B066;fill:color(display-p3 0.9647 0.6902 0.4000);fill-opacity:1;"/>
<g id="Vector_2">
<path d="M24.6468 86.5766L18.0882 75.9138L16.2756 76.1173L18.3358 88.4444L9.61784 89.9545L3.02842 52.3428L27.9596 49.3989L30.7604 74.3462L27.6599 74.6943L32.1581 82.0624L24.6468 86.5766ZM13.4 59.9693L14.6385 67.5585L20.9666 66.7032L20.1258 59.2142L13.4 59.9693Z" fill="#FF3D00" style="fill:#FF3D00;fill:color(display-p3 1.0000 0.2392 0.0000);fill-opacity:1;"/>
<path d="M38.0352 61.4219L39.7444 78.9406L45.228 78.1639L43.399 61.0129L49.1867 60.3631L51.6547 83.2064L34.5643 85.5759L32.2722 62.0045L38.0352 61.4219Z" fill="#FF3D00" style="fill:#FF3D00;fill:color(display-p3 1.0000 0.2392 0.0000);fill-opacity:1;"/>
<path d="M53.3407 83.0815L51.2138 61.8422L58.3964 60.424L62.2779 67.7487L65.3149 59.8082L72.2432 58.4186L74.8734 80.986L69.0858 81.6358L67.673 69.9122L65.5908 75.4592L59.9654 75.8331L58.191 72.3614L59.2274 82.4528L53.3407 83.0815Z" fill="#FF3D00" style="fill:#FF3D00;fill:color(display-p3 1.0000 0.2392 0.0000);fill-opacity:1;"/>
<path d="M80.359 62.563L80.766 66.1882L84.7133 63.2012L84.6624 61.8866L80.359 62.563ZM81.2194 70.2268L81.5978 73.5977L85.5728 73.1514L85.3239 71.7947L81.2194 70.2268ZM76.1279 77.0777L73.8547 57.6902L90.0507 55.0991L90.7522 65.9365L89.3011 67.0654L90.4184 67.5518L92.4944 78.2993L76.4564 80.0033L76.1279 77.0777Z" fill="#FF3D00" style="fill:#FF3D00;fill:color(display-p3 1.0000 0.2392 0.0000);fill-opacity:1;"/>
<path d="M98.0597 57.1624L99.6322 72.6034L107.872 71.4207L108.624 77.2613L94.3532 79.2177L92.2931 57.7132L98.0597 57.1624Z" fill="#FF3D00" style="fill:#FF3D00;fill:color(display-p3 1.0000 0.2392 0.0000);fill-opacity:1;"/>
<path d="M124.495 74.3524L110.128 76.3195L107.835 51.8788L120.202 50.748L120.757 56.5463L114.195 57.1864L114.581 60.6208L121.227 59.8746L121.884 65.7259L115.079 66.4899L115.436 69.6699L123.675 68.4873L124.495 74.3524Z" fill="#FF3D00" style="fill:#FF3D00;fill:color(display-p3 1.0000 0.2392 0.0000);fill-opacity:1;"/>
<path d="M46.4784 56.956L39.9198 46.2932L38.1072 46.4967L40.1674 58.8238L31.4494 60.3339L24.86 22.7222L49.7912 19.7783L52.592 44.7256L49.4915 45.0736L53.9896 52.4418L46.4784 56.956ZM35.2316 30.3487L36.4701 37.9379L42.7981 37.0825L41.9574 29.5936L35.2316 30.3487Z" fill="#FF3D00" style="fill:#FF3D00;fill:color(display-p3 1.0000 0.2392 0.0000);fill-opacity:1;"/>
<path d="M70.6764 53.225L56.3102 55.1921L54.0171 30.7513L66.3841 29.6205L66.9385 35.4188L60.3769 36.0589L60.7625 39.4933L67.4088 38.7471L68.0657 44.5984L61.2604 45.3624L61.6174 48.5424L69.8569 47.3598L70.6764 53.225Z" fill="#FF3D00" style="fill:#FF3D00;fill:color(display-p3 1.0000 0.2392 0.0000);fill-opacity:1;"/>
<path d="M72.6926 53.707L70.9111 40.9944L75.0092 30.7452L82.0731 30.564L87.5076 39.3888L89.6239 51.3553L83.8755 52.3549L83.033 48.0058L77.8496 48.5877L78.427 52.87L72.6926 53.707ZM82.0263 42.1938L81.8524 41.5049L78.9597 36.6775L76.9159 41.7049L77.0337 42.7543L82.0263 42.1938Z" fill="#FF3D00" style="fill:#FF3D00;fill:color(display-p3 1.0000 0.2392 0.0000);fill-opacity:1;"/>
<path d="M95.2463 34.3982L96.553 46.0371L101.708 45.2007L103.345 39.7038L99.5786 34.266L95.2463 34.3982ZM88.6882 28.7587L102.607 28.2586L109.804 38.7211L106.322 50.4467L91.3801 52.736L88.6882 28.7587Z" fill="#FF3D00" style="fill:#FF3D00;fill:color(display-p3 1.0000 0.2392 0.0000);fill-opacity:1;"/>
</g>
</g>
</svg>
