<svg width="552" height="80" viewBox="0 0 552 80" fill="none" xmlns="http://www.w3.org/2000/svg">
<path d="M35.728 76.288L25.072 53.632H21.424L22.768 78.592L5.104 79.648L0.4 3.424L50.608 3.13599V53.344H44.368L51.664 68.992L35.728 76.288ZM19.312 20.896L20.08 36.256L32.848 35.968V20.896H19.312ZM99.9505 73.408L56.4625 74.464L57.8065 0.831995L95.0545 1.6L94.7665 19.072L74.9905 18.784V29.152H95.0545V46.816H74.5105V56.416L99.4705 55.648L99.9505 73.408ZM105.8 75.52L104.744 37.024L120.392 7.84L141.512 9.664L154.76 37.792L157.064 74.176L139.592 75.232L138.536 61.984H122.888L123.176 74.944L105.8 75.52ZM137.48 44.32L137.192 42.208L130.184 26.848L122.408 41.152V44.32H137.48ZM179.502 25.504V60.64L195.15 59.872L201.87 44.032L192.462 26.56L179.502 25.504ZM161.838 6.496L203.502 9.664L221.454 43.264L207.15 77.056L161.838 78.88V6.496ZM258.572 76.288L247.916 53.632H244.268L245.612 78.592L227.948 79.648L223.244 3.424L273.452 3.13599V53.344H267.212L274.508 68.992L258.572 76.288ZM242.156 20.896L242.924 36.256L255.692 35.968V20.896H242.156ZM297.738 12.16L296.97 58.72L313.578 58.24L313.866 12.736H331.338L331.05 75.424L279.306 76.768L280.362 11.968L297.738 12.16ZM336.119 75.616L336.887 11.584L358.775 9.75999L367.895 32.896L379.607 10.24L400.727 8.41599L401.015 76.576H383.543L383.255 41.152L375.191 56.992L358.295 56.224L354.167 45.28L353.879 75.712L336.119 75.616ZM423.535 23.488V34.432L436.303 26.848L436.591 22.912L423.535 23.488ZM423.535 46.624V56.8H435.535L435.247 52.672L423.535 46.624ZM406.063 65.344L405.775 6.784L454.927 4.47999L453.391 37.024L448.687 39.904L451.855 41.728L454.447 74.464L406.063 74.176V65.344ZM478.113 13.312L477.633 59.872L502.593 59.104L502.881 76.768L459.681 77.824L460.737 13.024L478.113 13.312ZM551.169 73.408L507.681 74.464L509.025 0.831995L546.273 1.6L545.985 19.072L526.209 18.784V29.152H546.273V46.816H525.729V56.416L550.689 55.648L551.169 73.408Z" fill="#333333"/>
</svg>
