<svg width="144" height="96" viewBox="0 0 144 96" fill="none" xmlns="http://www.w3.org/2000/svg">
<g clip-path="url(#clip0_247_792)">
<path d="M13.2985 10.0001C23.377 23.8298 14.6156 22.7882 10.5983 23.961C14.6074 29.1199 12.3088 33.9676 6 37.0037C11.4246 39.0593 18.6316 39.9724 10.3425 50.8185C18.565 46.4292 24.2612 46.0591 23.4783 56C29.45 50.2974 37.2251 47.4237 44.9757 52.2438C44.0914 45.0378 46.2838 41.8823 53.9527 44.9907C45.73 37.873 49.1278 33.6466 54 29.5066C45.5798 29.1915 44.3989 23.1214 44.7087 15.8661C39.6268 21.0834 35.7713 20.5217 33.9626 10.3129C30.4696 17.8056 25.7652 22.5877 13.2984 10L13.2985 10.0001ZM24.7034 20.6597C26.3669 20.6944 27.3449 21.8488 28.2853 23.0655L22.1369 33.1132C20.0268 33.3067 18.4885 32.667 17.8193 30.7615L23.9682 20.713C24.1676 20.6812 24.3579 20.6639 24.5403 20.6598C24.5955 20.6586 24.6498 20.6585 24.7034 20.6597ZM31.8367 21.7512C33.5002 21.7855 34.4784 22.9406 35.4188 24.1568L28.5054 35.761C26.3952 35.9545 24.857 35.3139 24.188 33.4089L31.1015 21.8048C31.3009 21.773 31.4913 21.7554 31.6736 21.7512C31.7287 21.75 31.7829 21.75 31.8366 21.751L31.8367 21.7512ZM37.9023 24.8757C39.5661 24.9105 40.5441 26.0649 41.4846 27.281L34.6708 38.7405C32.5606 38.9335 31.0224 38.294 30.3535 36.3888L37.1668 24.929C37.3663 24.8974 37.5567 24.8801 37.7393 24.876C37.7942 24.8747 37.8488 24.8747 37.9025 24.8758L37.9023 24.8757ZM42.6907 30.2603C44.4237 30.2698 45.4542 31.4279 46.447 32.6473L40.7065 42.0283C38.6373 42.1547 37.105 41.5051 36.3889 39.6764L42.1297 30.2957C42.3247 30.2708 42.5114 30.2593 42.6907 30.2603ZM16.9952 33.9548L27.9302 38.5874C28.2418 40.702 27.6428 42.3688 25.6614 43.3556L14.726 38.7227C14.2602 36.6152 15.5808 35.2633 16.995 33.9548H16.9952Z" fill="#F6B066"/>
<g filter="url(#filter0_d_247_792)">
<path d="M62.9874 41.4372L58.3142 34.5227L57.1128 34.71L58.8373 42.8616L53.0739 44.1166L47.6098 19.2536L64.1312 16.5801L66.7098 33.1163L64.6546 33.4368L67.8613 38.2158L62.9874 41.4372ZM54.7359 24.0368L55.7777 29.0562L59.9681 28.3056L59.194 23.3416L54.7359 24.0368ZM83.9914 37.1902L69.7227 39.7715L66.3837 15.4516L78.6909 13.7915L79.4933 19.5608L72.9653 20.4816L73.4978 23.8963L80.1059 22.8658L81.0131 28.6835L74.2469 29.7387L74.7399 32.9005L82.9211 31.3656L83.9914 37.1902ZM86.0263 37.5854L83.7014 24.9609L87.3562 14.5454L94.4058 14.0614L100.214 22.645L102.841 34.5099L97.141 35.755L96.1128 31.446L90.9591 32.2497L91.7196 36.5033L86.0263 37.5854ZM94.8578 25.6826L94.6545 25.0017L91.5575 20.3028L89.7311 25.4132L89.8938 26.4566L94.8578 25.6826ZM107.731 17.3272L109.536 28.8994L114.65 27.8428L116.05 22.2807L112.054 17.0094L107.731 17.3272ZM100.937 11.9741L114.822 10.8777L122.461 21.0219L119.485 32.8861L104.655 35.814L100.937 11.9741Z" fill="#F5F5F5"/>
</g>
<g filter="url(#filter1_d_247_792)">
<path d="M34.3876 79.4788L30.0435 72.353L28.8346 72.4838L30.1754 80.7073L24.3595 81.6909L20.0661 56.5992L36.6946 54.7027L38.4958 71.3415L36.4278 71.5653L39.4071 76.4893L34.3876 79.4788ZM26.9603 61.711L27.7658 66.7737L31.9868 66.2202L31.4461 61.2254L26.9603 61.711ZM45.0668 56.8219L46.4826 72.2794L51.9692 71.5245L50.4323 56.4343L56.2224 55.8075L58.3758 76.5924L41.2762 78.8941L39.3016 57.3817L45.0668 56.8219ZM60.0624 76.4742L58.0199 55.2267L65.208 53.837L69.0604 61.177L72.1289 53.2487L79.0626 51.8866L81.6032 74.4643L75.813 75.0911L74.4468 63.362L72.3426 68.9006L66.7158 69.2523L64.9552 65.7735L65.9515 75.8689L60.0624 76.4742ZM87.1619 56.0632L87.5545 59.69L91.5137 56.7187L91.468 55.404L87.1619 56.0632ZM87.9919 63.7304L88.3569 67.1027L92.3337 66.6723L92.0902 65.3146L87.9919 63.7304ZM82.8732 70.561L80.677 51.1647L96.8832 48.6379L97.5417 59.478L96.0861 60.6012L97.2014 61.092L99.2347 71.8476L83.1901 73.4879L82.8732 70.561ZM104.884 50.733L106.395 66.1801L114.639 65.0302L115.368 70.8736L101.09 72.7733L99.1152 51.2609L104.884 50.733ZM131.25 68.0279L116.876 69.9379L114.68 45.4882L127.052 44.4065L127.583 50.207L121.019 50.821L121.391 54.257L128.04 53.5372L128.674 59.391L121.866 60.128L122.21 63.3094L130.454 62.1595L131.25 68.0279Z" fill="#F5F5F5"/>
</g>
</g>
<defs>
<filter id="filter0_d_247_792" x="43.4766" y="7.04681" width="84.8516" height="45.3114" filterUnits="userSpaceOnUse" color-interpolation-filters="sRGB">
<feFlood flood-opacity="0" result="BackgroundImageFix"/>
<feColorMatrix in="SourceAlpha" type="matrix" values="0 0 0 0 0 0 0 0 0 0 0 0 0 0 0 0 0 0 127 0" result="hardAlpha"/>
<feOffset dy="4"/>
<feGaussianBlur stdDeviation="2"/>
<feComposite in2="hardAlpha" operator="out"/>
<feColorMatrix type="matrix" values="0 0 0 0 0 0 0 0 0 0 0 0 0 0 0 0 0 0 0.25 0"/>
<feBlend mode="normal" in2="BackgroundImageFix" result="effect1_dropShadow_247_792"/>
<feBlend mode="normal" in="SourceGraphic" in2="effect1_dropShadow_247_792" result="shape"/>
</filter>
<filter id="filter1_d_247_792" x="15.9766" y="43.9764" width="119.5" height="45.8833" filterUnits="userSpaceOnUse" color-interpolation-filters="sRGB">
<feFlood flood-opacity="0" result="BackgroundImageFix"/>
<feColorMatrix in="SourceAlpha" type="matrix" values="0 0 0 0 0 0 0 0 0 0 0 0 0 0 0 0 0 0 127 0" result="hardAlpha"/>
<feOffset dy="4"/>
<feGaussianBlur stdDeviation="2"/>
<feComposite in2="hardAlpha" operator="out"/>
<feColorMatrix type="matrix" values="0 0 0 0 0 0 0 0 0 0 0 0 0 0 0 0 0 0 0.25 0"/>
<feBlend mode="normal" in2="BackgroundImageFix" result="effect1_dropShadow_247_792"/>
<feBlend mode="normal" in="SourceGraphic" in2="effect1_dropShadow_247_792" result="shape"/>
</filter>
<clipPath id="clip0_247_792">
<rect width="144" height="96" fill="white"/>
</clipPath>
</defs>
</svg>
