<?xml version="1.0" encoding="UTF-8" standalone="no"?> <svg xmlns="http://www.w3.org/2000/svg" width="1341.344" height="1706.598" viewBox="0 0 1341.344 1706.598">
  <g id="Layer_x0020_1" transform="translate(-497.32 -313.321)">
    <path id="Path_36" data-name="Path 36" d="M1429.62,502.5a26.67,26.67,0,1,0,0-53.34c-.24,0-69.22.01-116.09,23.41l-107.52-148.2.02-.04a26.669,26.669,0,0,0-48.08,12.58l-34.77,227.56c-36.25,31.2-164.33,160.92-11.33,326.93a26.61,26.61,0,0,0,39.16-36.04c-127.26-138.09-4.59-241.86,11.26-254.32a26.537,26.537,0,0,0,12.07-18.49l-.01-.07,26.64-174.34,83.61,115.25a27.011,27.011,0,0,0,3.57,4.42,26.671,26.671,0,0,0,37.71,0l-.05-.05c25.37-25.26,103.56-25.27,103.78-25.27Z" fill="#131313"/>
    <path id="Path_37" data-name="Path 37" d="M1079.23,812.38a26.656,26.656,0,0,0-6.46-52.92c-1.27.15-441.76,49.65-556.36,506.48-.31.94-110.94,322.63,203.94,632.07,8.96,10.78,146.55,168.56,485.24,108.19h.1a26.4,26.4,0,0,0,8.87-3.28c21.16-10.24,178.77-91.72,33.55-181.42l.05-.08a26.587,26.587,0,0,0-20.02-3.29c-21.39,3.27-236.16,32.17-318.73-113.05l-23.13,13.13,23.18-13.18a26.422,26.422,0,0,0-7.78-8.59c-14.67-12.9-125.46-117.56-63.29-287.11a26.629,26.629,0,0,0-50-18.34c-72.17,196.82,53.39,322.79,77.13,344.33,94.26,159.17,311.53,142.75,362.18,136.54,48.57,36.96-18.45,74.28-34.59,82.4-304.07,53.07-422.2-78.95-431.37-89.85a27.232,27.232,0,0,0-2.58-2.92l-.05.06c-284.04-277.92-197.97-560.73-192.35-578.08a27.8,27.8,0,0,0,.85-2.77l-.05-.07c104.85-422.56,510.5-468.11,511.67-468.25Z" fill="#131313"/>
    <path id="Path_38" data-name="Path 38" d="M898.05,1708.11a26.67,26.67,0,0,0,0,53.34h799.92a26.663,26.663,0,0,0,26.56-24.32c2.18-15.67,11.68-118.99-107.98-169.29l20.92-304.91c39.76-27.78,154.46-129.95,100.78-356.63a26.63,26.63,0,0,0-51.87,12.09c51.41,217.09-69.54,295.74-85.53,305.07a26.65,26.65,0,0,0-15.62,22.48l.04.06-23.07,336.27a26.67,26.67,0,0,0,18.02,28.73l.1-.09c72.22,24.07,88.64,69.83,91.65,97.21H898.06Z" fill="#131313"/>
    <path id="Path_39" data-name="Path 39" d="M991.05,1181.44a26.589,26.589,0,0,0,2.5,53.12c1.02-.05,356.81-21.36,320.15,348.5l-.07-.01a26.679,26.679,0,0,0,20.22,28.54c12.22,4.18,95.78,35.96,85.88,120.16a26.632,26.632,0,0,0,52.92,6.04c12.04-102.33-66.04-151.59-104.35-169.39,28.23-411.21-376.07-387.02-377.24-386.96Z" fill="#131313"/>
    <path id="Path_40" data-name="Path 40" d="M1604.93,944.89a26.616,26.616,0,1,0,20.42,49.16c1.06-.44,370.8-151.23,134.32-410.74l-32.03-243.44.09-.04a26.667,26.667,0,0,0-47.9-12.35l-114.18,132.2c-28.18-5.73-88.09-15.82-138.84-10.31a26.609,26.609,0,1,0,5.62,52.92c55.26-6,125.25,9.95,135.27,12.33a26.685,26.685,0,0,0,27.87-8.11l-.06-.05,87.16-100.92,25.11,190.88a26.551,26.551,0,0,0,7.24,16.98l.05-.04c195.25,206.95-109.27,331.17-110.13,331.53Z" fill="#131313"/>
    <circle id="Ellipse_1" data-name="Ellipse 1" cx="26.04" cy="26.04" r="26.04" transform="translate(1425.48 764.27)" fill="#131313"/>
    <path id="Path_41" data-name="Path 41" d="M1250.85,752.5a26.6,26.6,0,1,0,8.54,52.5c.23-.04,80.46-13.52,103.4,4.83a26.532,26.532,0,1,0,33.12-41.46c-41.76-33.41-144.78-15.93-145.07-15.88Z" fill="#131313"/>
    <path id="Path_42" data-name="Path 42" d="M1648.81,805a26.6,26.6,0,1,0,8.54-52.5c-.29-.05-103.31-17.53-145.07,15.88a26.532,26.532,0,1,0,33.12,41.46c22.94-18.35,103.17-4.87,103.4-4.83Z" fill="#131313"/>
    <circle id="Ellipse_2" data-name="Ellipse 2" cx="26.04" cy="26.04" r="26.04" transform="translate(1282.77 609.06)" fill="#131313"/>
    <circle id="Ellipse_3" data-name="Ellipse 3" cx="26.04" cy="26.04" r="26.04" transform="translate(1536.94 609.06)" fill="#131313"/>
    <path id="Path_43" data-name="Path 43" d="M1451.52,816.35a26.04,26.04,0,1,1,26.04-26.04A26.042,26.042,0,0,1,1451.52,816.35Zm111.46-155.21a26.04,26.04,0,1,1,26.04-26.04A26.042,26.042,0,0,1,1562.98,661.14Zm-200.19,148.7c-22.94-18.35-103.17-4.87-103.4-4.83a26.6,26.6,0,1,1-8.54-52.5c.29-.05,103.31-17.53,145.07,15.88a26.532,26.532,0,1,1-33.12,41.46ZM1334.85,635.1a26.04,26.04,0,1,1-26.04-26.04A26.042,26.042,0,0,1,1334.85,635.1Zm344.48,147.93a26.6,26.6,0,0,1-30.52,21.98c-.23-.04-80.46-13.52-103.4,4.83a26.532,26.532,0,1,1-33.12-41.46c41.76-33.41,144.78-15.93,145.07-15.88a26.6,26.6,0,0,1,21.98,30.52Zm-88.78,196.66a26.622,26.622,0,0,1,14.37-34.79c.87-.36,305.38-124.58,110.13-331.53l-.05.04a26.58,26.58,0,0,1-7.24-16.98l-25.11-190.88-87.16,100.92.06.05a26.68,26.68,0,0,1-27.87,8.11c-9.91-2.36-78.52-17.99-133.49-12.52a26.654,26.654,0,0,1-4.59.39c-.22,0-78.41.01-103.78,25.27l.05.05a26.683,26.683,0,0,1-41.28-4.42l-83.61-115.25-26.64,174.34.01.07a26.621,26.621,0,0,1-12.07,18.49c-15.86,12.46-138.52,116.24-11.26,254.32a26.61,26.61,0,0,1-39.16,36.04c-24.19-26.25-41.35-51.59-52.96-75.78-83.57,15.71-400.45,98.72-491.33,465l.05.07a27.821,27.821,0,0,1-.85,2.77c-5.63,17.35-91.7,300.16,192.35,578.08l.05-.06a27.1,27.1,0,0,1,2.58,2.92c9.17,10.9,127.3,142.93,431.37,89.85,16.14-8.12,83.16-45.44,34.59-82.4-50.65,6.21-267.92,22.63-362.18-136.54-23.74-21.54-149.3-147.5-77.13-344.33a26.629,26.629,0,0,1,50,18.34c-62.17,169.55,48.62,274.21,63.29,287.11a26.627,26.627,0,0,1,7.78,8.59l-.06.06c.58,1.02,1.16,2.02,1.75,3.02h508.9c-6.39-66.61-75.22-92.74-86.22-96.51a26.679,26.679,0,0,1-20.22-28.54l.07.01c36.67-369.86-319.13-348.55-320.15-348.5a26.589,26.589,0,0,1-2.5-53.12c1.17-.06,405.48-24.25,377.24,386.96,34.41,15.98,100.87,57.33,105.36,139.7h198.31c-3.01-27.38-19.43-73.14-91.65-97.21l-.1.09a26.687,26.687,0,0,1-18.02-28.73l23.07-336.27-.04-.06a26.669,26.669,0,0,1,15.62-22.48c14.98-8.75,122.17-78.39,93.24-265.81-37.89,23.81-68.43,36.28-68.74,36.4a26.622,26.622,0,0,1-34.79-14.37Z" fill="#ababab" fill-rule="evenodd"/>
  </g>
</svg>
