<?xml version="1.0" encoding="UTF-8" standalone="no"?> <svg xmlns="http://www.w3.org/2000/svg" viewBox="0 0 64 64"><title>cow-milk-farm-animal-animals-farming and gardening-animal kingdom-mammal-farming</title><g id="Flat"><polygon points="16 35 16 55 20 55 21 41 16 35" style="fill:#8c6239"/><polygon points="51 45.083 51 55 47 55 46.417 45.333 51 45.083" style="fill:#8c6239"/><path d="M43,42H53a0,0,0,0,1,0,0v0a4,4,0,0,1-4,4H47a4,4,0,0,1-4-4v0A0,0,0,0,1,43,42Z" style="fill:#754c24"/><path d="M24,13h0a7,7,0,0,0,7,7H48.6a9.4,9.4,0,0,1,6.021,2.18h0A9.406,9.406,0,0,1,58,29.405V57H54L53,42H28L27,57H23V47.95a11.949,11.949,0,0,0-3.5-8.45h0c-.441-.441-1.035-.9-1.617-1.393a6.051,6.051,0,0,1-2.106-3.89L15,28,4.852,26.617A2.707,2.707,0,0,1,3,24.048V21.877a2.707,2.707,0,0,1,1.758-2.536L10,16.223l2.366-1.5A5.611,5.611,0,0,1,17.176,12H20l.844-1.988a7.232,7.232,0,0,0,.525-4.575L21.062,4h0a7.226,7.226,0,0,1,3.063,7.807Z" style="fill:#a67c52"/><path d="M56,36H45V34H56a4,4,0,0,0,4-4V29c0-2.206-1.824-4.047-3.118-4.035l-1.447-2.012A6.114,6.114,0,0,1,62,29v1A6.006,6.006,0,0,1,56,36Z" style="fill:#8c6239"/><path d="M18.614,15.651l-.365,3.7A7.454,7.454,0,0,0,19.392,24.1l1.595,2.489a.5.5,0,0,0,.831,0l1.463-2.221a7.454,7.454,0,0,0,1.124-5.348l-.575-3.382a.713.713,0,0,0-.7-.595l-3.8-.043A.716.716,0,0,0,18.614,15.651Z" style="fill:#c69c6d"/><rect x="14" y="17" width="2" height="2" style="fill:#534741"/></g><g id="Outline"><path d="M56.848,23.067A10.418,10.418,0,0,0,48.6,19H31a6.007,6.007,0,0,1-6-5.949l.114-1.072a8.232,8.232,0,0,0-3.5-8.816,1,1,0,0,0-1.525,1.045l.307,1.438a6.3,6.3,0,0,1-.467,3.975L19.338,11H17.176a6.644,6.644,0,0,0-5.536,3L9.489,15.363,4.317,18.439A3.727,3.727,0,0,0,2,21.877v2.171a3.7,3.7,0,0,0,2.536,3.518,1.012,1.012,0,0,0,.181.042L14.1,28.887l.682,5.454A7.157,7.157,0,0,0,15,35.377V55a1,1,0,0,0,1,1h4a1,1,0,0,0,1-.929l.691-9.678A11.041,11.041,0,0,1,22,47.95V57a1,1,0,0,0,1,1h4a1,1,0,0,0,1-.934L28.936,43H42.1a5,5,0,0,0,3.387,3.741L46,55.062A1,1,0,0,0,47,56h4a1,1,0,0,0,1-1V46h-.031c.1-.072.188-.152.28-.231L53,57.066A1,1,0,0,0,54,58h4a1,1,0,0,0,1-1V35.188A6,6,0,0,0,62,30V29A6,6,0,0,0,56.848,23.067ZM19.069,54H17V38.653c.08.074.156.151.24.221l.443.366c.418.345.814.671,1.11.967a11.111,11.111,0,0,1,1.162,1.386Zm25.1-11h7.658A3.006,3.006,0,0,1,49,45H47A3.006,3.006,0,0,1,44.171,43ZM50,54H47.94l-.432-7H49a5,5,0,0,0,1-.1Zm7,2H54.936L54,41.934a1.015,1.015,0,0,0-.048-.182.991.991,0,0,0-.043-.162.957.957,0,0,0-.124-.184.915.915,0,0,0-.09-.122.977.977,0,0,0-.2-.137.961.961,0,0,0-.109-.07A.989.989,0,0,0,53,41H28a1,1,0,0,0-1,.934L26.064,56H24V47.95a12.865,12.865,0,0,0-3.793-9.157c-.365-.365-.8-.72-1.253-1.1l-.429-.356A5,5,0,0,1,17,35.086V35h-.031a5.088,5.088,0,0,1-.2-.907l-.778-6.217a1,1,0,0,0-.857-.867L5.09,25.641A1.709,1.709,0,0,1,4,24.048V21.877a1.718,1.718,0,0,1,1.109-1.6,1.024,1.024,0,0,0,.16-.077l5.266-3.133,2.366-1.5a1.008,1.008,0,0,0,.323-.33A4.63,4.63,0,0,1,17.176,13H20a1,1,0,0,0,.92-.609l.83-1.955a8.272,8.272,0,0,0,.775-3.464,6.222,6.222,0,0,1,.631,4.592,1.107,1.107,0,0,0-.024.138L23.005,12.9c0,.035,0,.07,0,.105a7.976,7.976,0,0,0,.3,2.131l-.552.094.674,3.969a6.436,6.436,0,0,1-.973,4.631L21.41,25.4l-1.177-1.836a6.488,6.488,0,0,1-.988-4.118l.429-4.346-1.99-.2-.43,4.346a8.487,8.487,0,0,0,1.3,5.393l2.007,3.132a1,1,0,0,0,.836.46H21.4a1,1,0,0,0,.835-.45l1.882-2.858a8.427,8.427,0,0,0,1.275-6.066l-.033-.194A7.972,7.972,0,0,0,31,21H48.6A8.4,8.4,0,0,1,57,29.405v4.453A3.939,3.939,0,0,1,56,34H45v2H56a6,6,0,0,0,1-.09Zm3-26a3.966,3.966,0,0,1-1,2.618V29.405a10.406,10.406,0,0,0-.667-3.64A3.989,3.989,0,0,1,60,29Z"/><rect x="14" y="17" width="2" height="2"/></g></svg>