<?xml version="1.0" encoding="UTF-8"?>
<!DOCTYPE svg PUBLIC "-//W3C//DTD SVG 1.1//EN" "http://www.w3.org/Graphics/SVG/1.1/DTD/svg11.dtd">
<!-- Creator: CorelDRAW -->
<svg xmlns="http://www.w3.org/2000/svg" xml:space="preserve" width="1.70666in" height="1.70666in" version="1.1" style="shape-rendering:geometricPrecision; text-rendering:geometricPrecision; image-rendering:optimizeQuality; fill-rule:evenodd; clip-rule:evenodd"
viewBox="0 0 1707 1707"
 xmlns:xlink="http://www.w3.org/1999/xlink">
 <defs>
  <style type="text/css">
   <![CDATA[
    .fil0 {fill:#333333}
    .fil3 {fill:url(#id0)}
    .fil2 {fill:url(#id1)}
    .fil1 {fill:url(#id2)}
    .fil4 {fill:url(#id3)}
    .fil6 {fill:url(#id4)}
    .fil7 {fill:url(#id5)}
    .fil5 {fill:url(#id6)}
   ]]>
  </style>
  <linearGradient id="id0" gradientUnits="userSpaceOnUse" x1="958.89" y1="1315.03" x2="958.89" y2="665.961">
   <stop offset="0" style="stop-opacity:1; stop-color:#378B4E"/>
   <stop offset="1" style="stop-opacity:1; stop-color:#99CC33"/>
  </linearGradient>
  <linearGradient id="id1" gradientUnits="userSpaceOnUse" xlink:href="#id0" x1="356.512" y1="1157.16" x2="356.512" y2="959.559">
  </linearGradient>
  <linearGradient id="id2" gradientUnits="userSpaceOnUse" xlink:href="#id0" x1="321.406" y1="1013.73" x2="321.406" y2="491.236">
  </linearGradient>
  <linearGradient id="id3" gradientUnits="userSpaceOnUse" xlink:href="#id0" x1="930.622" y1="1160.61" x2="930.622" y2="874.193">
  </linearGradient>
  <linearGradient id="id4" gradientUnits="userSpaceOnUse" xlink:href="#id0" x1="1389.86" y1="500.76" x2="1389.86" y2="467.138">
  </linearGradient>
  <linearGradient id="id5" gradientUnits="userSpaceOnUse" xlink:href="#id0" x1="1562.51" y1="752.307" x2="1562.51" y2="616.291">
  </linearGradient>
  <linearGradient id="id6" gradientUnits="userSpaceOnUse" xlink:href="#id0" x1="1408.29" y1="939.26" x2="1408.29" y2="391.787">
  </linearGradient>
 </defs>
 <g id="Layer_x0020_1">
  <metadata id="CorelCorpID_0Corel-Layer"/>
  <path class="fil0" d="M819 810l-46 -34c-27,-19 3,-61 30,-42l70 51c19,-10 37,-20 55,-31l-52 -38c-27,-20 3,-61 30,-42l68 49c16,-11 32,-24 47,-36l-56 -41c-27,-19 4,-61 31,-42l66 48 42 -40 -59 -43c-27,-20 3,-61 30,-42l64 47 48 -59 -61 -44c-27,-20 3,-62 30,-42l61 45c66,-96 53,-139 200,-133 66,2 70,54 149,54 84,0 122,62 127,72 34,54 -3,90 -43,118 7,31 16,93 -17,146 -28,45 -78,72 -149,82 -17,19 -37,31 -51,40 -6,4 -12,8 -16,11 7,81 -99,175 -137,206 -28,30 -58,111 -50,150 77,2 156,2 166,95l194 0c33,0 33,52 0,52l-1474 0c-33,0 -33,-52 0,-52l438 0c-13,-33 -14,-76 -10,-107 -279,-20 -406,-129 -456,-192 -76,-94 -101,-269 -82,-384 13,-80 74,-237 212,-181 14,5 20,23 13,36 -1,2 -103,186 -11,305 99,127 452,80 599,18zm258 505c-23,-50 -10,-100 -1,-150 -90,22 -218,45 -370,48 0,2 0,4 1,7 77,1 156,2 165,95l205 0zm-456 0l199 0c-12,-75 -132,-21 -153,-57 -34,-57 11,-158 30,-194l9 -9c7,-5 108,-69 213,-128 215,-122 253,-114 274,-96 10,9 20,27 5,59 -60,129 -51,200 -77,314 -10,43 -9,111 34,111l188 0c-9,-54 -79,-41 -132,-44 -9,-1 -17,-5 -21,-13 -39,-65 23,-185 32,-197 76,-98 70,-189 68,-208 -43,-79 -119,-184 -167,-187 -112,109 -281,227 -502,246 -5,1 -22,4 -47,7 51,43 83,100 88,108 13,24 -18,69 -25,80 -14,20 -29,52 -40,97 -5,23 -8,110 24,111zm-19 -249c-95,-2 -343,-17 -491,-106 50,82 177,178 445,197 17,-53 28,-62 46,-91zm-533 -215c78,125 369,158 522,163 -23,-32 -61,-75 -107,-90 -104,1 -239,-16 -305,-101 -89,-115 -37,-268 -8,-331 -70,-7 -104,89 -114,148 -11,66 -5,143 12,211zm1094 -226c79,37 174,194 177,218 2,8 6,45 -5,96 62,-84 -4,-82 70,-129 131,-84 3,-126 197,-255 60,-40 56,-44 46,-63 -1,-1 -25,-45 -82,-45 -93,0 -112,-53 -151,-55 -60,-2 -94,3 -109,35 -23,48 -90,140 -143,198zm-450 536c157,-4 285,-29 371,-52 10,-66 22,-141 64,-235 -62,14 -249,119 -409,221 -8,16 -19,41 -26,66zm890 -545c-80,57 -64,80 -83,136 68,-21 92,-73 83,-136zm-213 -64c-90,0 -90,-137 0,-137 90,0 90,137 0,137zm0 -85c-22,0 -22,34 0,34 22,0 22,-34 0,-34z"/>
  <path class="fil1" d="M484 924c-104,1 -239,-16 -305,-101 -89,-115 -37,-268 -8,-331 -70,-7 -104,89 -114,148 -11,66 -5,143 12,211 78,125 369,158 522,163 -23,-32 -61,-75 -107,-90z"/>
  <path class="fil2" d="M602 1066c-95,-2 -343,-17 -491,-106 50,82 177,178 445,197 17,-53 28,-62 46,-91z"/>
  <path class="fil3" d="M574 919c51,43 83,100 88,108 13,24 -18,69 -25,80 -14,20 -29,52 -40,97 -5,23 -8,110 24,111l199 0c-12,-75 -132,-21 -153,-57 -34,-57 11,-158 30,-194l9 -9c7,-5 108,-69 213,-128 215,-122 253,-114 274,-96 10,9 20,27 5,59 -60,129 -51,200 -77,314 -10,43 -9,111 34,111l188 0c-9,-54 -79,-41 -132,-44 -9,-1 -17,-5 -21,-13 -39,-65 23,-185 32,-197 76,-98 70,-189 68,-208 -43,-79 -119,-184 -167,-187 -112,109 -281,227 -502,246 -5,1 -22,4 -47,7z"/>
  <path class="fil4" d="M1148 874c-62,14 -249,119 -409,221 -8,16 -19,41 -26,66 157,-4 285,-29 371,-52 10,-66 22,-141 64,-235z"/>
  <path class="fil5" d="M1163 625c79,37 174,194 177,218 2,8 6,45 -5,96 62,-84 -4,-82 70,-129 131,-84 3,-126 197,-255 60,-40 56,-44 46,-63 -1,-1 -25,-45 -82,-45 -93,0 -112,-53 -151,-55 -60,-2 -94,3 -109,35 -23,48 -90,140 -143,198zm227 -73c-90,0 -90,-137 0,-137 90,0 90,137 0,137z"/>
  <path class="fil6" d="M1390 467c-22,0 -22,34 0,34 22,0 22,-34 0,-34z"/>
  <path class="fil7" d="M1603 616c-80,57 -64,80 -83,136 68,-21 92,-73 83,-136z"/>
 </g>
</svg>
