<?xml version="1.0" encoding="UTF-8" standalone="no"?> <svg xmlns="http://www.w3.org/2000/svg" xmlns:xlink="http://www.w3.org/1999/xlink" viewBox="0 0 32 32"><defs><style>.cls-1{fill:#307e45;}.cls-2{fill:#4fb15c;}.cls-3{fill:#9adc8e;}.cls-4{fill:url(#linear-gradient);}.cls-5{fill:url(#linear-gradient-2);}.cls-6{fill:#f45356;}.cls-7{fill:#ff7b56;}.cls-8{fill:#d24d54;}.cls-9{fill:url(#linear-gradient-3);}.cls-10{fill:#511d21;}.cls-11{fill:url(#linear-gradient-4);}.cls-12{fill:#ffa97d;}.cls-13{fill:url(#linear-gradient-5);}.cls-14{fill:url(#linear-gradient-6);}.cls-15{fill:#a23a41;}</style><linearGradient id="linear-gradient" x1="16" y1="7.74" x2="16" y2="30" gradientUnits="userSpaceOnUse"><stop offset="0" stop-color="#ffe96f"/><stop offset="0.37" stop-color="#ff6153"/></linearGradient><linearGradient id="linear-gradient-2" x1="11.3" y1="9.73" x2="11.17" y2="14.12" gradientUnits="userSpaceOnUse"><stop offset="0" stop-color="#ffb965"/><stop offset="1" stop-color="#ff6153"/></linearGradient><linearGradient id="linear-gradient-3" x1="8.19" y1="8.5" x2="11.67" y2="27.13" gradientUnits="userSpaceOnUse"><stop offset="0" stop-color="#ffc067"/><stop offset="0.25" stop-color="#ff6153"/><stop offset="1" stop-color="#d24d54"/></linearGradient><linearGradient id="linear-gradient-4" x1="25.39" y1="19.09" x2="21.17" y2="7.98" gradientUnits="userSpaceOnUse"><stop offset="0.21" stop-color="#f45356"/><stop offset="1" stop-color="#ffa060"/></linearGradient><linearGradient id="linear-gradient-5" x1="6.4" y1="15.7" x2="6.15" y2="18.03" gradientUnits="userSpaceOnUse"><stop offset="0" stop-color="#ff6153"/><stop offset="1" stop-color="#bc4857"/></linearGradient><linearGradient id="linear-gradient-6" x1="10.36" y1="20.81" x2="9.17" y2="23.26" xlink:href="#linear-gradient-5"/></defs><title>strawberry pouting</title><g id="strawberry_pouting" data-name="strawberry pouting"><path class="cls-1" d="M21.86,4.49a1,1,0,0,0-1.37-.35L17.54,5.91a3.65,3.65,0,0,1-.54.23V3a1,1,0,0,0-2,0V6.14a3.65,3.65,0,0,1-.54-.23l-3-1.77a1,1,0,0,0-1,1.72l2.94,1.76a4.95,4.95,0,0,0,5.14,0l2.94-1.76A1,1,0,0,0,21.86,4.49Z"/><path class="cls-2" d="M18.06,7.77a1,1,0,0,1-.86-.49,1,1,0,0,1,.34-1.37l2.95-1.77a1,1,0,0,1,1,1.72L18.57,7.62A1,1,0,0,1,18.06,7.77Z"/><path class="cls-2" d="M13.94,7.77a1,1,0,0,1-.51-.15L10.49,5.86a1,1,0,0,1,1-1.72l3,1.77a1,1,0,0,1,.34,1.37A1,1,0,0,1,13.94,7.77Z"/><path class="cls-3" d="M20.33,6.4a1,1,0,0,1-.51-1.86l.67-.4a1,1,0,0,1,1,1.72l-.66.4A1.07,1.07,0,0,1,20.33,6.4Z"/><path class="cls-3" d="M11.63,6.38a1.06,1.06,0,0,1-.51-.14l-.63-.38a1,1,0,0,1,1-1.72l.64.38a1,1,0,0,1,.34,1.37A1,1,0,0,1,11.63,6.38Z"/><path class="cls-4" d="M27,17a1.89,1.89,0,0,1-.11.25c-.65,1.36-1.3,2.61-1.93,3.75-3.33,6-6.35,9-9,9-1.53,0-3.17-1-4.94-3a30.51,30.51,0,0,1-2.87-4c-.39-.62-.78-1.29-1.17-2-.64-1.14-1.29-2.39-1.94-3.75A2.72,2.72,0,0,1,5,17a6.94,6.94,0,0,1-.55-2,7.08,7.08,0,0,1,.75-4A7,7,0,0,1,6.86,8.88a5,5,0,0,1,5.2-.71L14,9a5.07,5.07,0,0,0,4,0l1.92-.85a5,5,0,0,1,5.2.71A7,7,0,0,1,27,17Z"/><path class="cls-5" d="M18,13a2,2,0,0,1-2,2H4.42a7.08,7.08,0,0,1,.75-4H16A2,2,0,0,1,18,13Z"/><path class="cls-6" d="M22,19a2,2,0,0,1-2,2H7c-.64-1.14-1.29-2.39-1.94-3.75A2.72,2.72,0,0,1,5,17H20A2,2,0,0,1,22,19Z"/><path class="cls-6" d="M19,25a2,2,0,0,1-2,2H11.06a30.51,30.51,0,0,1-2.87-4H17A2,2,0,0,1,19,25Z"/><circle class="cls-6" cx="21.5" cy="13.5" r="0.5"/><circle class="cls-7" cx="22.5" cy="10.5" r="0.5"/><circle class="cls-7" cx="9.5" cy="10.5" r="0.5"/><circle class="cls-7" cx="19.5" cy="11.5" r="0.5"/><circle class="cls-6" cx="24.5" cy="13.5" r="0.5"/><circle class="cls-6" cx="23.5" cy="20.5" r="0.5"/><circle class="cls-6" cx="20.5" cy="23.5" r="0.5"/><circle class="cls-6" cx="23.5" cy="16.5" r="0.5"/><circle class="cls-6" cx="15.5" cy="12.5" r="0.5"/><circle class="cls-8" cx="9.5" cy="19.5" r="0.5"/><circle class="cls-6" cx="7.5" cy="13.5" r="0.5"/><circle class="cls-8" cx="14.5" cy="18.5" r="0.5"/><circle class="cls-8" cx="19.5" cy="18.5" r="0.5"/><circle class="cls-8" cx="12.5" cy="23.5" r="0.5"/><circle class="cls-8" cx="17.5" cy="25.5" r="0.5"/><path class="cls-9" d="M16,30c-3.15,0-6.83-4.29-10.92-12.75A7,7,0,0,1,6.86,8.88a1,1,0,1,1,1.29,1.53,5,5,0,0,0-1.27,6C12,26.87,15,28,16,28a1,1,0,0,1,0,2Z"/><ellipse class="cls-10" cx="20" cy="17.5" rx="1" ry="1.5"/><ellipse class="cls-10" cx="12" cy="17.5" rx="1" ry="1.5"/><path class="cls-11" d="M26,17.81a1,1,0,0,1-.43-.1,1,1,0,0,1-.47-1.33,5,5,0,0,0-1.27-6,3,3,0,0,0-3.1-.41l-1.93.85a1,1,0,0,1-1.32-.51A1,1,0,0,1,18,9l1.92-.85a5,5,0,0,1,5.2.71,7,7,0,0,1,1.78,8.37A1,1,0,0,1,26,17.81Z"/><path class="cls-12" d="M24.49,10.64a1,1,0,0,1-.64-.23,3,3,0,0,0-3.1-.41,1,1,0,1,1-.81-1.83,5,5,0,0,1,5.2.71,1,1,0,0,1-.65,1.76Z"/><path class="cls-12" d="M26.42,13.7a1,1,0,0,1-1-.74c0-.16-.09-.32-.14-.47a1,1,0,0,1,.59-1.28,1,1,0,0,1,1.28.59c.08.21.15.42.21.64a1,1,0,0,1-.71,1.23Z"/><path class="cls-13" d="M6.47,18.81a1,1,0,0,1-.89-.55l-.5-1a1,1,0,0,1,1.8-.88l.48,1a1,1,0,0,1-.44,1.35A1,1,0,0,1,6.47,18.81Z"/><path class="cls-14" d="M10.87,26.18a1,1,0,0,1-.8-.4A40.63,40.63,0,0,1,7,21a1,1,0,0,1,1.75-1,39.11,39.11,0,0,0,2.9,4.57,1,1,0,0,1-.19,1.4A1,1,0,0,1,10.87,26.18Z"/><path class="cls-15" d="M12,13.5a.47.47,0,0,1,.15-.35.48.48,0,0,1,.7,0l2,2a.49.49,0,0,1-.7.7l-2-2A.47.47,0,0,1,12,13.5Z"/><path class="cls-15" d="M20,13.5a.47.47,0,0,1-.15.35l-2,2a.49.49,0,0,1-.7-.7l2-2a.48.48,0,0,1,.7,0A.47.47,0,0,1,20,13.5Z"/><path class="cls-10" d="M19,24a1,1,0,0,1-.71-.29,2.37,2.37,0,0,0-1.7-.71H15.41a2.37,2.37,0,0,0-1.7.71,1,1,0,0,1-1.42-1.42A4.42,4.42,0,0,1,15.41,21h1.18a4.42,4.42,0,0,1,3.12,1.29,1,1,0,0,1,0,1.42A1,1,0,0,1,19,24Z"/></g></svg>
